<?xml version="1.0" encoding="UTF-8" standalone="no"?>
<!-- Created with Inkscape (http://www.inkscape.org/) -->

<svg
   width="297mm"
   height="210mm"
   viewBox="0 0 297 210"
   version="1.1"
   id="svg1"
   inkscape:version="1.4.2 (f4327f4, 2025-05-13)"
   sodipodi:docname="background.svg"
   inkscape:export-filename="background.svg"
   inkscape:export-xdpi="96"
   inkscape:export-ydpi="96"
   xmlns:inkscape="http://www.inkscape.org/namespaces/inkscape"
   xmlns:sodipodi="http://sodipodi.sourceforge.net/DTD/sodipodi-0.dtd"
   xmlns="http://www.w3.org/2000/svg"
   xmlns:svg="http://www.w3.org/2000/svg">
  <sodipodi:namedview
     id="namedview1"
     pagecolor="#10273e"
     bordercolor="#000000"
     borderopacity="0.25"
     inkscape:showpageshadow="2"
     inkscape:pageopacity="0.0"
     inkscape:pagecheckerboard="0"
     inkscape:deskcolor="#d1d1d1"
     inkscape:document-units="mm"
     inkscape:zoom="1.0093364"
     inkscape:cx="485.46747"
     inkscape:cy="355.18385"
     inkscape:window-width="2560"
     inkscape:window-height="1351"
     inkscape:window-x="-9"
     inkscape:window-y="-9"
     inkscape:window-maximized="1"
     inkscape:current-layer="layer1"
     inkscape:export-bgcolor="#101735ff" />
  <defs
     id="defs1" />
  <g
     inkscape:label="Layer 1"
     inkscape:groupmode="layer"
     id="layer1">
    <path
       sodipodi:type="star"
       style="fill:#cccccc;stroke-width:0.264999"
       id="path2"
       inkscape:flatsided="false"
       sodipodi:sides="5"
       sodipodi:cx="29.097088"
       sodipodi:cy="31.45631"
       sodipodi:r1="3.7071619"
       sodipodi:r2="1.853581"
       sodipodi:arg1="0.78539816"
       sodipodi:arg2="1.4137167"
       inkscape:rounded="0"
       inkscape:randomized="0"
       d="m 31.718447,34.07767 -2.331395,-0.790599 -1.97298,1.472345 0.03146,-2.461598 -2.009968,-1.421436 2.350841,-0.730751 0.730752,-2.350841 1.421436,2.009968 2.461597,-0.03146 -1.472345,1.97298 z"
       inkscape:transform-center-x="0.057796433"
       inkscape:transform-center-y="-0.057796241"
       transform="matrix(0.32251257,0,0,0.32251257,21.950724,18.830621)" />
    <path
       sodipodi:type="star"
       style="fill:#cccccc;stroke-width:0.264999"
       id="path3"
       inkscape:flatsided="false"
       sodipodi:sides="5"
       sodipodi:cx="102.75728"
       sodipodi:cy="43.252426"
       sodipodi:r1="1.3106796"
       sodipodi:r2="0.65533984"
       sodipodi:arg1="0.64350111"
       sodipodi:arg2="1.2718196"
       inkscape:rounded="0"
       inkscape:randomized="0"
       d="m 103.80582,44.038834 -0.85552,-0.16014 -0.61692,0.61397 -0.11207,-0.863132 -0.77456,-0.397005 0.78626,-0.373305 0.13822,-0.859332 0.598,0.632417 0.85998,-0.134092 -0.41667,0.76416 z"
       inkscape:transform-center-x="0.11929625"
       inkscape:transform-center-y="-0.0061490461"
       transform="translate(-37.485437,-5.2427184)" />
    <path
       sodipodi:type="star"
       style="fill:#cccccc;stroke-width:0.264999"
       id="path4"
       inkscape:flatsided="false"
       sodipodi:sides="5"
       sodipodi:cx="166.19417"
       sodipodi:cy="33.815533"
       sodipodi:r1="4.5099568"
       sodipodi:r2="2.2549784"
       sodipodi:arg1="0.62024949"
       sodipodi:arg2="1.248568"
       inkscape:rounded="0"
       inkscape:randomized="0"
       d="m 169.86407,36.436892 -2.95579,-0.48244 -2.07311,2.16141 -0.45456,-2.960209 -2.69625,-1.30373 2.67486,-1.34707 0.40673,-2.967159 2.10772,2.127674 2.94762,-0.530076 -1.37222,2.662045 z"
       inkscape:transform-center-x="0.21462268"
       inkscape:transform-center-y="0.0057472982"
       transform="matrix(0.51106407,0,0,0.51106407,53.431289,3.4323313)" />
    <path
       sodipodi:type="star"
       style="fill:#cccccc;stroke-width:0.264999"
       id="path5"
       inkscape:flatsided="false"
       sodipodi:sides="5"
       sodipodi:cx="220.71844"
       sodipodi:cy="114.81553"
       sodipodi:r1="2.9657295"
       sodipodi:r2="1.4828647"
       sodipodi:arg1="2.3561945"
       sodipodi:arg2="2.984513"
       inkscape:rounded="0"
       inkscape:randomized="0"
       d="m 218.62136,116.91262 0.63248,-1.86512 -1.17788,-1.57838 1.96928,0.0252 1.13715,-1.60798 0.5846,1.88068 1.88067,0.5846 -1.60797,1.13715 0.0252,1.96927 -1.57839,-1.17787 z"
       inkscape:transform-center-x="-0.089406744"
       inkscape:transform-center-y="-0.089405636"
       transform="matrix(0.62361809,0,0,0.62361809,84.176935,42.111984)" />
    <path
       sodipodi:type="star"
       style="fill:#cccccc;stroke-width:0.264999"
       id="path6"
       inkscape:flatsided="false"
       sodipodi:sides="5"
       sodipodi:cx="83.621359"
       sodipodi:cy="139.19417"
       sodipodi:r1="2.5817394"
       sodipodi:r2="1.2908697"
       sodipodi:arg1="0.41822433"
       sodipodi:arg2="1.0465429"
       inkscape:rounded="0"
       inkscape:randomized="0"
       d="m 85.980584,140.24271 -1.713057,0.069 -0.91435,1.45027 -0.594948,-1.6079 -1.661838,-0.42144 1.345358,-1.0627 -0.112721,-1.71074 1.426425,0.95112 1.592172,-0.63585 -0.463779,1.65052 z"
       inkscape:transform-center-x="0.08287348"
       inkscape:transform-center-y="0.16638309" />
    <path
       sodipodi:type="star"
       style="fill:#cccccc;stroke-width:0.264999"
       id="path7"
       inkscape:flatsided="false"
       sodipodi:sides="5"
       sodipodi:cx="65.009712"
       sodipodi:cy="93.05825"
       sodipodi:r1="1.853581"
       sodipodi:r2="0.92679042"
       sodipodi:arg1="0.78539816"
       sodipodi:arg2="1.4137167"
       inkscape:rounded="0"
       inkscape:randomized="0"
       d="m 66.320392,94.36893 -1.165698,-0.395299 -0.98649,0.736172 0.01573,-1.230799 -1.004984,-0.710718 1.17542,-0.365375 0.365376,-1.175421 0.710718,1.004984 1.230799,-0.01573 -0.736173,0.98649 z"
       inkscape:transform-center-x="0.055878755"
       inkscape:transform-center-y="-0.035643017"
       transform="matrix(0.62361809,0,0,0.39778895,-6.628353,44.714902)" />
    <path
       sodipodi:type="star"
       style="fill:#cccccc;stroke-width:0.264999"
       id="path8"
       inkscape:flatsided="false"
       sodipodi:sides="5"
       sodipodi:cx="166.71844"
       sodipodi:cy="79.951454"
       sodipodi:r1="6.8807559"
       sodipodi:r2="3.440378"
       sodipodi:arg1="2.4370986"
       sodipodi:arg2="3.0654171"
       inkscape:rounded="0"
       inkscape:randomized="0"
       d="m 161.47573,84.407765 1.81231,-4.194492 -2.42789,-3.870865 4.54924,0.427448 2.93115,-3.505225 0.99926,4.458668 4.23945,1.704517 -3.93166,2.328161 -0.31103,4.558674 -3.42916,-3.019785 z"
       inkscape:transform-center-x="-0.067369571"
       inkscape:transform-center-y="-0.021746623"
       transform="matrix(0.13439524,0,0,0.13439524,156.01801,63.942485)" />
    <path
       sodipodi:type="star"
       style="fill:#cccccc;stroke-width:0.264999"
       id="path9"
       inkscape:flatsided="false"
       sodipodi:sides="5"
       sodipodi:cx="236.18446"
       sodipodi:cy="69.20388"
       sodipodi:r1="14.109148"
       sodipodi:r2="7.054574"
       sodipodi:arg1="2.1845664"
       sodipodi:arg2="2.812885"
       inkscape:rounded="0"
       inkscape:randomized="0"
       d="m 228.05825,80.737861 1.44934,-9.256622 -6.80373,-6.441651 9.25144,-1.48205 4.0239,-8.461313 4.26837,8.340665 9.29064,1.212272 -6.61344,6.636865 1.71802,9.210538 -8.3557,-4.238857 z"
       inkscape:transform-center-x="0.035441901"
       inkscape:transform-center-y="-0.12103823"
       transform="matrix(0.04166375,0.10733527,-0.10733527,0.04166375,265.5107,34.253322)" />
    <path
       sodipodi:type="star"
       style="fill:#cccccc;stroke-width:0.264999"
       id="path10"
       inkscape:flatsided="false"
       sodipodi:sides="5"
       sodipodi:cx="277.07767"
       sodipodi:cy="35.650486"
       sodipodi:r1="12.726422"
       sodipodi:r2="6.3632112"
       sodipodi:arg1="2.1359458"
       sodipodi:arg2="2.7642643"
       inkscape:rounded="0"
       inkscape:randomized="0"
       d="m 270.26213,46.398059 0.89996,-8.403124 -6.41209,-5.505225 8.26995,-1.740794 3.25434,-7.799469 4.21114,7.327253 8.42339,0.684888 -5.66732,6.269286 1.9516,8.222753 -7.71374,-3.452621 z"
       inkscape:transform-center-x="0.035458621"
       inkscape:transform-center-y="-0.13948574"
       transform="matrix(0.14280813,0,0,0.14280813,214.35902,16.264312)" />
    <path
       sodipodi:type="star"
       style="fill:#cccccc;stroke-width:0.264999"
       id="path11"
       inkscape:flatsided="false"
       sodipodi:sides="5"
       sodipodi:cx="195.81554"
       sodipodi:cy="166.45631"
       sodipodi:r1="4.077878"
       sodipodi:r2="2.038939"
       sodipodi:arg1="2.3561945"
       sodipodi:arg2="2.984513"
       inkscape:rounded="0"
       inkscape:randomized="0"
       d="m 192.93204,169.33981 0.86966,-2.56454 -1.61958,-2.17027 2.70776,0.0346 1.56358,-2.21097 0.80382,2.58593 2.58593,0.80382 -2.21097,1.56358 0.0346,2.70776 -2.17027,-1.61958 z"
       inkscape:transform-center-x="-0.15838655"
       inkscape:transform-center-y="-0.0047304733"
       transform="matrix(0.06914578,0.41256458,-0.41256458,0.06914578,225.50611,93.0502)" />
    <path
       sodipodi:type="star"
       style="fill:#cccccc;stroke-width:0.264999"
       id="path12"
       inkscape:flatsided="true"
       sodipodi:sides="5"
       sodipodi:cx="263.97086"
       sodipodi:cy="170.12621"
       sodipodi:r1="3.6792531"
       sodipodi:r2="1.8396266"
       sodipodi:arg1="1.6421038"
       sodipodi:arg2="2.2704223"
       inkscape:rounded="0"
       inkscape:randomized="0"
       d="m 263.70872,173.79611 -3.30915,-2.78515 1.62624,-4.00785 4.31423,0.30816 1.0401,4.1983 z"
       inkscape:transform-center-x="0.024741307"
       inkscape:transform-center-y="0.083496971"
       transform="matrix(0.3053954,0,0,0.3053954,156.88852,139.06909)" />
    <path
       sodipodi:type="star"
       style="fill:#cccccc;stroke-width:0.264999"
       id="path13"
       inkscape:flatsided="true"
       sodipodi:sides="5"
       sodipodi:cx="33.291264"
       sodipodi:cy="117.96117"
       sodipodi:r1="1.6784889"
       sodipodi:r2="1.357926"
       sodipodi:arg1="0.89605538"
       sodipodi:arg2="1.5243739"
       inkscape:rounded="0"
       inkscape:randomized="0"
       d="m 34.339807,119.27185 -1.971056,0.0916 -0.696175,-1.84629 1.540796,-1.23263 1.64844,1.08447 z"
       inkscape:transform-center-x="0.024796221"
       inkscape:transform-center-y="-0.13651308"
       transform="rotate(71.91952,76.636279,140.83883)" />
    <path
       sodipodi:type="star"
       style="fill:#cccccc;stroke-width:0.264999"
       id="path14"
       inkscape:flatsided="true"
       sodipodi:sides="5"
       sodipodi:cx="114.02913"
       sodipodi:cy="184.01942"
       sodipodi:r1="4.6376581"
       sodipodi:r2="3.7519441"
       sodipodi:arg1="0.74541948"
       sodipodi:arg2="1.373738"
       inkscape:rounded="0"
       inkscape:randomized="0"
       d="m 117.4369,187.16506 -5.34639,1.0674 -2.66728,-4.75487 3.69791,-4.00607 4.95272,2.27898 z"
       inkscape:transform-center-x="0.11053328"
       inkscape:transform-center-y="-0.06596065"
       transform="matrix(0.3939494,0,0,0.3939494,165.14126,-47.464187)" />
    <path
       sodipodi:type="star"
       style="fill:#cccccc;stroke-width:0.264999"
       id="path15"
       inkscape:flatsided="true"
       sodipodi:sides="5"
       sodipodi:cx="28.572817"
       sodipodi:cy="177.46602"
       sodipodi:r1="12.799107"
       sodipodi:r2="10.354695"
       sodipodi:arg1="0.61072596"
       sodipodi:arg2="1.2390445"
       inkscape:rounded="0"
       inkscape:randomized="0"
       d="m 39.058254,184.80582 -14.225829,4.90057 -9.056734,-12.01521 8.628459,-12.32637 14.389415,4.39709 z"
       inkscape:transform-center-x="0.15380237"
       inkscape:transform-center-y="0.0092583717"
       transform="matrix(0.13306511,0,0,0.13306511,13.676497,143.36052)" />
  </g>
</svg>
